<svg xmlns="http://www.w3.org/2000/svg" fill="none" viewBox="0 0 128 128">
    <defs>
        <style>
          .cls-1 {
            fill: #fff;
          }
    
          .cls-2 {
            fill: #0069b5;
          }
        </style>
      </defs>
      <g id="_图层_1_图像" data-name="图层 1 图像">
        <circle class="cls-2" cx="64" cy="64" r="64"/>
      </g>
      <g id="_01" data-name="01">
        <g>
          <path class="cls-1" d="M61.75,45.37c2.74,4.61,4.1,10.8,4.1,18.58s-1.37,13.97-4.1,18.58c-3.17,5.4-7.78,8.14-13.9,8.14s-10.8-2.74-13.9-8.14c-2.74-4.61-4.1-10.8-4.1-18.58s1.37-13.97,4.1-18.58c3.1-5.47,7.7-8.14,13.9-8.14s10.73,2.66,13.9,8.14ZM37.91,49.69c-1.44,3.46-2.16,8.21-2.16,14.26s.72,10.73,2.16,14.26c2.02,4.9,5.33,7.42,9.94,7.42s7.92-2.52,9.94-7.42c1.44-3.53,2.23-8.28,2.23-14.26s-.79-10.8-2.23-14.26c-2.02-4.97-5.33-7.42-9.94-7.42s-7.92,2.45-9.94,7.42Z"/>
          <path class="cls-1" d="M90.62,38.24v51.41h-5.9v-44.21c-3.24,3.31-7.27,5.62-12.1,7.06v-5.9c2.3-.65,4.75-1.66,7.2-3.1,2.45-1.58,4.46-3.31,6.19-5.26h4.61Z"/>
        </g>
      </g>
</svg>
